<svg width="15" height="16" viewBox="0 0 15 16" fill="none" xmlns="http://www.w3.org/2000/svg">
<path d="M8 2C8.13261 2 8.25975 2.05272 8.35352 2.14648L8.41602 2.22266C8.47037 2.30419 8.5 2.40056 8.5 2.5V7.5H13.5C13.6326 7.5 13.7597 7.55272 13.8535 7.64648C13.9473 7.74025 14 7.86739 14 8C14 8.13261 13.9473 8.25975 13.8535 8.35352C13.7597 8.44728 13.6326 8.5 13.5 8.5H8.5V13.5C8.5 13.6326 8.44728 13.7597 8.35352 13.8535C8.25975 13.9473 8.13261 14 8 14C7.86739 14 7.74025 13.9473 7.64648 13.8535C7.55272 13.7597 7.5 13.6326 7.5 13.5V8.5H2.5C2.40056 8.5 2.30419 8.47037 2.22266 8.41602L2.14648 8.35352C2.05272 8.25975 2 8.13261 2 8C2 7.86739 2.05272 7.74025 2.14648 7.64648L2.22266 7.58398C2.30419 7.52963 2.40056 7.5 2.5 7.5H7.5V2.5C7.5 2.36739 7.55272 2.24025 7.64648 2.14648L7.72266 2.08398C7.80419 2.02963 7.90056 2 8 2Z" fill="white" stroke="white" stroke-width="0.5"/>
</svg>
