<svg width="13" height="14" viewBox="0 0 13 14" fill="none" xmlns="http://www.w3.org/2000/svg">
<path fill-rule="evenodd" clip-rule="evenodd" d="M1.8 0.942337H1.75C1.521 0.942337 1.324 0.942337 1.15 0.983337C0.880636 1.0477 0.63435 1.18538 0.438431 1.38113C0.242511 1.57687 0.104608 1.82303 0.04 2.09234C-3.72529e-08 2.26634 0 2.46234 0 2.69234V5.19234C0 5.42134 7.45058e-09 5.61834 0.041 5.79234C0.105365 6.0617 0.243046 6.30799 0.438789 6.50391C0.634532 6.69983 0.880694 6.83773 1.15 6.90234C1.324 6.94234 1.52 6.94234 1.75 6.94234H4.25C4.479 6.94234 4.676 6.94234 4.85 6.90134C5.11936 6.83697 5.36565 6.69929 5.56157 6.50355C5.75749 6.3078 5.89539 6.06164 5.96 5.79234C6 5.61834 6 5.42234 6 5.19234V2.69234C6 2.46334 6 2.26634 5.959 2.09234C5.89464 1.82297 5.75695 1.57669 5.56121 1.38077C5.36547 1.18485 5.11931 1.04694 4.85 0.982337C4.676 0.942337 4.48 0.942337 4.25 0.942337H1.8ZM1.383 1.95634C1.426 1.94634 1.493 1.94234 1.8 1.94234H4.2C4.508 1.94234 4.574 1.94534 4.617 1.95634C4.70683 1.97782 4.78895 2.02376 4.85426 2.08907C4.91957 2.15438 4.96552 2.23651 4.987 2.32634C4.997 2.36834 5 2.43434 5 2.74234V5.14234C5 5.45034 4.997 5.51634 4.986 5.55934C4.96452 5.64917 4.91857 5.73129 4.85326 5.7966C4.78795 5.86191 4.70583 5.90786 4.616 5.92934C4.575 5.93834 4.509 5.94234 4.2 5.94234H1.8C1.492 5.94234 1.426 5.93934 1.383 5.92834C1.29317 5.90686 1.21105 5.86091 1.14574 5.7956C1.08043 5.73029 1.03448 5.64817 1.013 5.55834C1.004 5.51734 1 5.45134 1 5.14234V2.74234C1 2.43434 1.003 2.36834 1.014 2.32534C1.03548 2.23551 1.08143 2.15338 1.14674 2.08807C1.21205 2.02276 1.29417 1.97682 1.384 1.95534L1.383 1.95634ZM8.8 0.942337H8.75C8.521 0.942337 8.324 0.942337 8.15 0.983337C7.88064 1.0477 7.63435 1.18538 7.43843 1.38113C7.24251 1.57687 7.10461 1.82303 7.04 2.09234C7 2.26634 7 2.46234 7 2.69234V5.19234C7 5.42134 7 5.61834 7.041 5.79234C7.10537 6.0617 7.24305 6.30799 7.43879 6.50391C7.63453 6.69983 7.88069 6.83773 8.15 6.90234C8.324 6.94234 8.52 6.94234 8.75 6.94234H11.25C11.479 6.94234 11.676 6.94234 11.85 6.90134C12.1194 6.83697 12.3657 6.69929 12.5616 6.50355C12.7575 6.3078 12.8954 6.06164 12.96 5.79234C13 5.61834 13 5.42234 13 5.19234V2.69234C13 2.46334 13 2.26634 12.959 2.09234C12.8946 1.82297 12.757 1.57669 12.5612 1.38077C12.3655 1.18485 12.1193 1.04694 11.85 0.982337C11.676 0.942337 11.48 0.942337 11.25 0.942337H8.8ZM8.383 1.95634C8.426 1.94634 8.493 1.94234 8.8 1.94234H11.2C11.508 1.94234 11.574 1.94534 11.617 1.95634C11.7068 1.97782 11.789 2.02376 11.8543 2.08907C11.9196 2.15438 11.9655 2.23651 11.987 2.32634C11.997 2.36834 12 2.43434 12 2.74234V5.14234C12 5.45034 11.996 5.51634 11.986 5.55934C11.9645 5.64917 11.9186 5.73129 11.8533 5.7966C11.788 5.86191 11.7058 5.90786 11.616 5.92934C11.574 5.93934 11.508 5.94234 11.2 5.94234H8.8C8.492 5.94234 8.426 5.93934 8.383 5.92834C8.29317 5.90686 8.21105 5.86091 8.14574 5.7956C8.08043 5.73029 8.03448 5.64817 8.013 5.55834C8.004 5.51734 8 5.45134 8 5.14234V2.74234C8 2.43434 8.003 2.36834 8.014 2.32534C8.03548 2.23551 8.08142 2.15338 8.14674 2.08807C8.21205 2.02276 8.29417 1.97682 8.384 1.95534L8.383 1.95634ZM1.75 7.94234H4.25C4.479 7.94234 4.676 7.94234 4.85 7.98334C5.11936 8.0477 5.36565 8.18538 5.56157 8.38113C5.75749 8.57687 5.89539 8.82303 5.96 9.09234C6 9.26634 6 9.46234 6 9.69234V12.1923C6 12.4213 6 12.6183 5.959 12.7923C5.89464 13.0617 5.75695 13.308 5.56121 13.5039C5.36547 13.6998 5.11931 13.8377 4.85 13.9023C4.676 13.9423 4.48 13.9423 4.25 13.9423H1.75C1.521 13.9423 1.324 13.9423 1.15 13.9013C0.880636 13.837 0.63435 13.6993 0.438431 13.5035C0.242511 13.3078 0.104608 13.0616 0.04 12.7923C-3.72529e-08 12.6183 0 12.4223 0 12.1923V9.69234C0 9.46334 7.45058e-09 9.26634 0.041 9.09234C0.105365 8.82297 0.243046 8.57669 0.438789 8.38077C0.634532 8.18485 0.880694 8.04694 1.15 7.98234C1.324 7.94234 1.52 7.94234 1.75 7.94234ZM1.8 8.94234C1.492 8.94234 1.426 8.94534 1.383 8.95634C1.29317 8.97782 1.21105 9.02376 1.14574 9.08907C1.08043 9.15438 1.03448 9.23651 1.013 9.32634C1.004 9.36734 1 9.43334 1 9.74234V12.1423C1 12.4503 1.003 12.5163 1.014 12.5593C1.03548 12.6492 1.08143 12.7313 1.14674 12.7966C1.21205 12.8619 1.29417 12.9079 1.384 12.9293C1.426 12.9393 1.492 12.9423 1.8 12.9423H4.2C4.508 12.9423 4.574 12.9383 4.617 12.9283C4.70683 12.9069 4.78895 12.8609 4.85426 12.7956C4.91957 12.7303 4.96552 12.6482 4.987 12.5583C4.997 12.5163 5 12.4503 5 12.1423V9.74234C5 9.43434 4.997 9.36834 4.986 9.32534C4.96452 9.23551 4.91857 9.15338 4.85326 9.08807C4.78795 9.02276 4.70583 8.97682 4.616 8.95534C4.575 8.94634 4.509 8.94234 4.2 8.94234H1.8ZM8.8 7.94234H8.75C8.521 7.94234 8.324 7.94234 8.15 7.98334C7.88064 8.0477 7.63435 8.18538 7.43843 8.38113C7.24251 8.57687 7.10461 8.82303 7.04 9.09234C7 9.26634 7 9.46234 7 9.69234V12.1923C7 12.4213 7 12.6183 7.041 12.7923C7.10537 13.0617 7.24305 13.308 7.43879 13.5039C7.63453 13.6998 7.88069 13.8377 8.15 13.9023C8.324 13.9433 8.521 13.9433 8.75 13.9433H11.25C11.479 13.9433 11.676 13.9433 11.85 13.9023C12.1192 13.8378 12.3653 13.7001 12.561 13.5043C12.7567 13.3086 12.8945 13.0625 12.959 12.7933C13 12.6193 13 12.4223 13 12.1933V9.69234C13 9.46334 13 9.26634 12.959 9.09234C12.8946 8.82297 12.757 8.57669 12.5612 8.38077C12.3655 8.18485 12.1193 8.04694 11.85 7.98234C11.676 7.94234 11.48 7.94234 11.25 7.94234H8.8ZM8.383 8.95634C8.426 8.94634 8.493 8.94234 8.8 8.94234H11.2C11.508 8.94234 11.574 8.94534 11.617 8.95634C11.7068 8.97782 11.789 9.02376 11.8543 9.08907C11.9196 9.15438 11.9655 9.23651 11.987 9.32634C11.997 9.36834 12 9.43434 12 9.74234V12.1423C12 12.4503 11.996 12.5163 11.986 12.5593C11.9645 12.6492 11.9186 12.7313 11.8533 12.7966C11.788 12.8619 11.7058 12.9079 11.616 12.9293C11.574 12.9393 11.508 12.9423 11.2 12.9423H8.8C8.492 12.9423 8.426 12.9383 8.383 12.9283C8.29317 12.9069 8.21105 12.8609 8.14574 12.7956C8.08043 12.7303 8.03448 12.6482 8.013 12.5583C8.004 12.5173 8 12.4513 8 12.1423V9.74234C8 9.43434 8.003 9.36834 8.014 9.32534C8.03548 9.23551 8.08142 9.15338 8.14674 9.08807C8.21205 9.02276 8.29417 8.97682 8.384 8.95534L8.383 8.95634Z" fill="#252525"/>
</svg>
