<svg width="4" height="17" viewBox="0 0 4 17" fill="none" xmlns="http://www.w3.org/2000/svg">
<path d="M3.66659 8.31514C3.66659 8.76881 3.49099 9.2039 3.17843 9.52469C2.86587 9.84549 2.44195 10.0257 1.99992 10.0257C1.55789 10.0257 1.13397 9.84549 0.821407 9.52469C0.508847 9.2039 0.333252 8.76881 0.333252 8.31514C0.333252 7.86147 0.508847 7.42638 0.821407 7.10559C1.13397 6.7848 1.55789 6.60458 1.99992 6.60458C2.44195 6.60458 2.86587 6.7848 3.17843 7.10559C3.49099 7.42638 3.66659 7.86147 3.66659 8.31514ZM3.66659 2.15501C3.66659 2.60868 3.49099 3.04377 3.17843 3.36456C2.86587 3.68535 2.44195 3.86557 1.99992 3.86557C1.55789 3.86557 1.13397 3.68535 0.821407 3.36456C0.508847 3.04377 0.333252 2.60868 0.333252 2.15501C0.333252 1.70134 0.508847 1.26625 0.821407 0.945456C1.13397 0.624662 1.55789 0.444443 1.99992 0.444443C2.44195 0.444443 2.86587 0.624662 3.17843 0.945456C3.49099 1.26625 3.66659 1.70134 3.66659 2.15501ZM3.66659 14.4746C3.66659 14.9283 3.49099 15.3634 3.17843 15.6842C2.86587 16.005 2.44195 16.1852 1.99992 16.1852C1.55789 16.1852 1.13397 16.005 0.821407 15.6842C0.508847 15.3634 0.333252 14.9283 0.333252 14.4746C0.333252 14.0209 0.508847 13.5859 0.821407 13.2651C1.13397 12.9443 1.55789 12.7641 1.99992 12.7641C2.44195 12.7641 2.86587 12.9443 3.17843 13.2651C3.49099 13.5859 3.66659 14.0209 3.66659 14.4746Z" fill="#CC6237"/>
</svg>
