<svg width="16" height="17" viewBox="0 0 16 17" fill="none" xmlns="http://www.w3.org/2000/svg">
<path d="M13.4369 3.63591C13.2489 3.43815 13.0231 3.28002 12.773 3.17084C12.5229 3.06165 12.2534 3.00362 11.9805 3.00016C11.7076 2.9967 11.4368 3.04789 11.184 3.15069C10.9312 3.2535 10.7015 3.40585 10.5085 3.59878L4.06232 10.0446C3.837 10.2699 3.68054 10.5546 3.61126 10.8656L3.00824 13.5814C2.99565 13.6379 2.99751 13.6966 3.01364 13.7521C3.02976 13.8076 3.05964 13.8582 3.10049 13.8991C3.14135 13.94 3.19187 13.97 3.24737 13.9862C3.30288 14.0024 3.36158 14.0044 3.41804 13.9919L6.11821 13.3917C6.43962 13.3201 6.73396 13.1584 6.9667 12.9255L13.4012 6.49133C13.7783 6.11403 13.9932 5.60432 13.9998 5.07089C14.0065 4.53746 13.8045 4.02253 13.4369 3.63591ZM10.9946 4.08488C11.1204 3.9573 11.2702 3.85587 11.4353 3.78642C11.6004 3.71698 11.7777 3.6809 11.9569 3.68025C12.136 3.67961 12.3135 3.71442 12.4792 3.78268C12.6448 3.85094 12.7953 3.9513 12.922 4.07797C13.0486 4.20465 13.149 4.35513 13.2173 4.52076C13.2855 4.6864 13.3203 4.86389 13.3197 5.04304C13.3191 5.22218 13.283 5.39943 13.2135 5.56456C13.1441 5.7297 13.0426 5.87946 12.9151 6.00523L12.4537 6.46658L10.5332 4.54692L10.9946 4.08488ZM10.0471 5.03371L11.9676 6.95337L6.48058 12.4401C6.34027 12.5806 6.16281 12.6781 5.96901 12.7213L3.79622 13.2039L4.28303 11.0155C4.3236 10.8319 4.41574 10.6641 4.54844 10.5314L10.0471 5.03371Z" fill="black"/>
</svg>
