<svg width="11" height="11" viewBox="0 0 11 11" fill="none" xmlns="http://www.w3.org/2000/svg">
<g clip-path="url(#clip0_4524_71)">
<path d="M5.14844 5.5V0.8125C5.14844 0.71926 5.18548 0.629838 5.25141 0.563908C5.31734 0.497977 5.40676 0.460938 5.5 0.460938C5.59324 0.460938 5.68266 0.497977 5.74859 0.563908C5.81452 0.629838 5.85156 0.71926 5.85156 0.8125V5.5C5.85156 5.59324 5.81452 5.68266 5.74859 5.74859C5.68266 5.81452 5.59324 5.85156 5.5 5.85156C5.40676 5.85156 5.31734 5.81452 5.25141 5.74859C5.18548 5.68266 5.14844 5.59324 5.14844 5.5ZM8.50469 0.988281C8.42718 0.946081 8.33663 0.934577 8.25103 0.956054C8.16543 0.977531 8.09103 1.03042 8.04262 1.10421C7.99422 1.17801 7.97533 1.26731 7.98972 1.35438C8.00412 1.44145 8.05073 1.51993 8.12031 1.57422C9.5084 2.48066 10.3047 3.91094 10.3047 5.5C10.3047 6.77428 9.79848 7.99637 8.89743 8.89743C7.99637 9.79848 6.77428 10.3047 5.5 10.3047C4.22572 10.3047 3.00363 9.79848 2.10257 8.89743C1.20152 7.99637 0.695312 6.77428 0.695312 5.5C0.695312 3.91094 1.4916 2.48066 2.87969 1.57422C2.94927 1.51993 2.99588 1.44145 3.01027 1.35438C3.02467 1.26731 3.00578 1.17801 2.95738 1.10421C2.90897 1.03042 2.83457 0.977531 2.74897 0.956054C2.66337 0.934577 2.57282 0.946081 2.49531 0.988281C0.904492 2.02422 -0.0078125 3.66895 -0.0078125 5.5C-0.00781248 6.96076 0.572473 8.3617 1.60539 9.39461C2.6383 10.4275 4.03924 11.0078 5.5 11.0078C6.96076 11.0078 8.3617 10.4275 9.39461 9.39461C10.4275 8.3617 11.0078 6.96076 11.0078 5.5C11.0078 3.66895 10.0955 2.02422 8.50469 0.988281Z" fill="#252525"/>
</g>
<defs>
<clipPath id="clip0_4524_71">
<rect width="11" height="11" fill="white"/>
</clipPath>
</defs>
</svg>
