<svg width="12" height="12" viewBox="0 0 12 12" fill="none" xmlns="http://www.w3.org/2000/svg">
<path fill-rule="evenodd" clip-rule="evenodd" d="M7.58998 8.29733C6.69141 9.01527 5.55206 9.36191 4.4059 9.26603C3.25975 9.17016 2.19381 8.63906 1.42701 7.78181C0.66021 6.92456 0.250758 5.80624 0.282749 4.65653C0.314739 3.50682 0.785744 2.413 1.59903 1.59971C2.41231 0.786431 3.50613 0.315426 4.65584 0.283435C5.80555 0.251445 6.92388 0.660896 7.78112 1.4277C8.63837 2.1945 9.16947 3.26044 9.26535 4.40659C9.36122 5.55274 9.01459 6.6921 8.29664 7.59066L11.734 11.0273C11.7831 11.0731 11.8225 11.1283 11.8498 11.1896C11.8772 11.251 11.8919 11.3172 11.893 11.3843C11.8942 11.4514 11.8819 11.5181 11.8567 11.5804C11.8316 11.6427 11.7941 11.6992 11.7467 11.7467C11.6992 11.7942 11.6426 11.8316 11.5804 11.8567C11.5181 11.8819 11.4514 11.8942 11.3843 11.8931C11.3172 11.8919 11.251 11.8772 11.1896 11.8498C11.1283 11.8225 11.0731 11.7831 11.0273 11.734L7.58998 8.29733ZM2.30598 7.256C1.81667 6.76664 1.48341 6.14321 1.34832 5.46451C1.21323 4.78581 1.28236 4.08229 1.54699 3.44286C1.81161 2.80344 2.25985 2.25681 2.83505 1.87206C3.41026 1.48732 4.08661 1.28172 4.77862 1.28125C5.47064 1.28079 6.14727 1.48547 6.72299 1.86945C7.29871 2.25342 7.74768 2.79944 8.01317 3.43851C8.27866 4.07758 8.34874 4.781 8.21456 5.45989C8.08038 6.13878 7.74796 6.76265 7.25931 7.25266L7.25598 7.256L7.25264 7.25866C6.59604 7.91374 5.70626 8.28142 4.77876 8.28092C3.85125 8.28042 2.96188 7.91179 2.30598 7.256Z" fill="black" fill-opacity="0.2"/>
</svg>
