<svg width="26" height="18" viewBox="0 0 26 18" fill="none" xmlns="http://www.w3.org/2000/svg">
<path d="M25.1174 8.67094C25.0819 8.5907 24.2216 6.68234 22.3092 4.76992C19.761 2.22172 16.5425 0.875 13 0.875C9.45749 0.875 6.23897 2.22172 3.69077 4.76992C1.77835 6.68234 0.914053 8.59375 0.882568 8.67094C0.836371 8.77485 0.8125 8.8873 0.8125 9.00101C0.8125 9.11473 0.836371 9.22718 0.882568 9.33109C0.918115 9.41133 1.77835 11.3187 3.69077 13.2311C6.23897 15.7783 9.45749 17.125 13 17.125C16.5425 17.125 19.761 15.7783 22.3092 13.2311C24.2216 11.3187 25.0819 9.41133 25.1174 9.33109C25.1636 9.22718 25.1875 9.11473 25.1875 9.00101C25.1875 8.8873 25.1636 8.77485 25.1174 8.67094ZM13 15.5C9.8739 15.5 7.14288 14.3635 4.8821 12.123C3.95447 11.2005 3.16527 10.1486 2.53905 9C3.16511 7.85127 3.95432 6.79932 4.8821 5.87695C7.14288 3.63648 9.8739 2.5 13 2.5C16.1261 2.5 18.8571 3.63648 21.1179 5.87695C22.0473 6.7991 22.8382 7.85104 23.466 9C22.7337 10.367 19.5437 15.5 13 15.5ZM13 4.125C12.0358 4.125 11.0933 4.41091 10.2916 4.94659C9.4899 5.48226 8.86506 6.24363 8.49608 7.13442C8.1271 8.02521 8.03056 9.00541 8.21866 9.95107C8.40676 10.8967 8.87106 11.7654 9.55285 12.4471C10.2346 13.1289 11.1033 13.5932 12.0489 13.7813C12.9946 13.9694 13.9748 13.8729 14.8656 13.5039C15.7564 13.1349 16.5177 12.5101 17.0534 11.7084C17.5891 10.9067 17.875 9.96418 17.875 9C17.8736 7.70748 17.3596 6.46829 16.4457 5.55434C15.5317 4.64039 14.2925 4.12634 13 4.125ZM13 12.25C12.3572 12.25 11.7288 12.0594 11.1944 11.7023C10.6599 11.3452 10.2434 10.8376 9.99738 10.2437C9.7514 9.64986 9.68704 8.9964 9.81244 8.36596C9.93784 7.73552 10.2474 7.15642 10.7019 6.7019C11.1564 6.24738 11.7355 5.93785 12.3659 5.81245C12.9964 5.68705 13.6499 5.75141 14.2437 5.99739C14.8376 6.24338 15.3452 6.65994 15.7023 7.1944C16.0594 7.72886 16.25 8.35721 16.25 9C16.25 9.86195 15.9076 10.6886 15.2981 11.2981C14.6886 11.9076 13.8619 12.25 13 12.25Z" fill="#CC6237"/>
</svg>
