<svg width="16" height="17" viewBox="0 0 16 17" fill="none" xmlns="http://www.w3.org/2000/svg">
<g clip-path="url(#clip0_9_5062)">
<path d="M14.9422 8.29112C13.4445 5.52224 10.8178 3.84668 7.91113 3.84668C5.00447 3.84668 2.37335 5.52224 0.88891 8.29112L0.764465 8.50001L0.880021 8.71335C2.3778 11.4822 5.00447 13.1578 7.91113 13.1578C10.8178 13.1578 13.4489 11.5045 14.9422 8.71335L15.0578 8.50001L14.9422 8.29112ZM7.91113 12.2467C5.40891 12.2467 3.11113 10.8511 1.7778 8.50001C3.11113 6.1489 5.40891 4.75335 7.91113 4.75335C10.4134 4.75335 12.6845 6.15335 14.04 8.50001C12.6845 10.8511 10.4089 12.2467 7.91113 12.2467Z" fill="black"/>
<path d="M8.04001 5.46444C7.43739 5.46883 6.8496 5.65172 6.35086 5.98998C5.85212 6.32825 5.46482 6.80673 5.23786 7.36499C5.0109 7.92325 4.95447 8.53624 5.07569 9.12656C5.19692 9.71687 5.49036 10.258 5.91896 10.6817C6.34755 11.1053 6.89208 11.3924 7.48376 11.5067C8.07545 11.6211 8.68774 11.5575 9.24332 11.3241C9.7989 11.0906 10.2728 10.6978 10.6053 10.1951C10.9377 9.6925 11.1137 9.10262 11.1111 8.49999C11.1094 8.09885 11.0285 7.702 10.8731 7.33218C10.7177 6.96236 10.4909 6.62683 10.2056 6.34484C9.92026 6.06284 9.58212 5.83992 9.21051 5.68884C8.8389 5.53777 8.44114 5.46151 8.04001 5.46444ZM8.04001 10.6733C7.61434 10.6689 7.19946 10.5389 6.84748 10.2995C6.49549 10.0601 6.2221 9.72198 6.06162 9.3277C5.90115 8.93342 5.86076 8.50051 5.94552 8.08335C6.03028 7.66618 6.23642 7.28337 6.53804 6.98298C6.83966 6.68258 7.22331 6.47801 7.64082 6.39495C8.05833 6.3119 8.49106 6.35406 8.88469 6.51614C9.27831 6.67822 9.61527 6.95299 9.85324 7.30595C10.0912 7.65891 10.2196 8.07431 10.2222 8.49999C10.2234 8.78648 10.1677 9.07035 10.0584 9.33515C9.949 9.59995 9.78816 9.8404 9.58517 10.0426C9.38218 10.2447 9.14107 10.4046 8.87583 10.5129C8.61058 10.6211 8.32649 10.6757 8.04001 10.6733Z" fill="black"/>
</g>
<defs>
<clipPath id="clip0_9_5062">
<rect width="16" height="16" fill="white" transform="translate(0 0.5)"/>
</clipPath>
</defs>
</svg>
