<svg width="28" height="25" viewBox="0 0 28 25" fill="none" xmlns="http://www.w3.org/2000/svg">
<path d="M24.9489 16.3713L27.8076 15.2976V8.05352L24.9489 6.97992C23.1165 2.98027 19.019 0.193237 14.2544 0.193237C9.48985 0.193237 5.3924 2.98027 3.56002 6.97992L0.701263 8.05352V15.2967L3.56002 16.3703C4.23119 17.8353 5.20725 19.1366 6.40771 20.1994V20.9723H4.27949L2.87376 25.0922H25.6351L24.2294 20.9723H22.0338V20.2595C23.2654 19.1869 24.2646 17.8629 24.9489 16.3713ZM11.131 3.69897H17.3778V5.2379H11.131V3.69897ZM21.3163 15.5786L19.1609 17.6903H9.29766L7.12516 15.5619V8.66575L9.29464 6.54022H19.1941L21.3153 8.61842V15.5786H21.3163Z" fill="#CC6237"/>
</svg>
